<?xml version="1.0" standalone="no"?>
<!DOCTYPE svg PUBLIC "-//W3C//DTD SVG 20010904//EN"
 "http://www.w3.org/TR/2001/REC-SVG-20010904/DTD/svg10.dtd">
<svg version="1.0" xmlns="http://www.w3.org/2000/svg"
 width="1350.000000pt" height="1350.000000pt" viewBox="0 0 1350.000000 1350.000000"
 preserveAspectRatio="xMidYMid meet">
<metadata>
Created by potrace 1.10, written by Peter Selinger 2001-2011
</metadata>
<g transform="translate(0.000000,1350.000000) scale(0.100000,-0.100000)"
fill="#000000" stroke="none">
<path d="M10189 13315 c-34 -17 -57 -41 -89 -89 -44 -69 -101 -126 -125 -126
-7 0 -21 -7 -29 -16 -11 -11 -25 -14 -45 -9 -23 5 -31 13 -36 38 -4 18 -13 39
-20 47 -7 8 -19 37 -27 65 -13 49 -14 50 -73 68 -33 10 -73 16 -88 13 -37 -7
-87 -43 -87 -62 0 -21 53 -17 83 6 23 19 30 19 68 8 23 -7 44 -20 46 -28 3 -8
12 -29 20 -46 12 -24 13 -35 4 -52 -10 -18 -8 -26 9 -44 11 -12 20 -25 20 -30
0 -4 -32 -8 -70 -8 l-70 0 20 -40 c23 -45 45 -59 63 -41 14 14 57 15 57 1 0
-6 -12 -15 -26 -20 -35 -14 -23 -27 43 -46 46 -13 79 -15 172 -9 114 7 116 7
181 50 74 47 99 80 128 170 34 104 35 123 8 150 -14 14 -26 35 -28 47 -4 32
-51 34 -109 3z"/>
<path d="M5645 10916 c-70 -19 -124 -46 -131 -68 -3 -11 2 -30 11 -44 9 -14
24 -56 34 -92 l17 -67 41 -3 c23 -2 76 4 117 12 41 9 110 16 153 16 98 0 122
7 129 35 6 23 -26 97 -46 110 -5 3 -10 14 -10 23 -1 9 -11 29 -23 43 -19 23
-32 28 -92 33 -38 3 -88 8 -110 10 -22 3 -62 -1 -90 -8z"/>
<path d="M5875 10468 c-38 -4 -100 -13 -137 -20 -53 -9 -70 -8 -82 2 -13 10
-17 8 -25 -13 -5 -13 -22 -30 -38 -36 -15 -6 -35 -15 -43 -20 -8 -5 -35 -19
-60 -31 -25 -12 -58 -30 -75 -41 -16 -10 -37 -22 -45 -26 -42 -20 -469 -350
-554 -428 -42 -39 -104 -83 -121 -87 -24 -4 -27 -37 -5 -48 8 -4 36 -17 61
-29 57 -26 87 -57 71 -73 -8 -8 -18 -3 -40 18 -16 16 -53 37 -82 46 -46 15
-56 15 -80 3 -47 -24 -60 -56 -60 -144 0 -61 -4 -82 -15 -88 -18 -11 -126
-220 -153 -300 -33 -96 -47 -173 -46 -261 2 -95 13 -116 71 -127 19 -3 54 -16
78 -27 l42 -21 62 22 c33 11 70 21 81 21 21 0 23 -5 21 -60 -2 -30 3 -38 36
-59 109 -71 180 -131 261 -224 154 -174 335 -354 377 -376 22 -11 57 -36 79
-54 84 -73 184 -110 299 -111 79 -1 97 3 129 22 53 33 61 65 31 127 -18 35
-25 37 -65 20 -16 -6 -18 -1 -18 36 0 24 6 55 13 69 8 14 19 48 25 75 17 68
43 125 57 125 7 0 36 13 66 29 30 16 73 32 97 36 85 14 172 135 172 238 0 19
6 52 14 74 23 65 28 236 8 289 -12 32 -14 49 -6 61 8 13 2 24 -30 55 -23 21
-48 38 -56 38 -8 0 -22 4 -30 10 -12 7 -12 12 0 35 10 19 11 31 3 43 -10 17
-9 22 32 99 4 6 -3 24 -14 40 -12 16 -23 44 -26 63 -2 19 -13 53 -24 75 l-21
40 7 -81 c9 -131 0 -145 -109 -158 -47 -5 -148 -49 -148 -64 1 -25 64 -68 113
-77 39 -8 50 -31 20 -41 -27 -9 -65 -25 -95 -41 -15 -7 -38 -13 -50 -11 -30 3
-107 -47 -135 -89 -12 -18 -32 -60 -44 -93 -12 -33 -26 -63 -30 -66 -5 -3 -9
-13 -9 -22 0 -20 -96 -119 -106 -109 -7 6 43 79 58 85 4 2 8 12 8 23 0 13 -7
19 -22 19 -40 0 -53 16 -55 69 -2 58 -17 93 -38 85 -10 -4 -15 4 -17 33 -2 30
-7 39 -25 41 -12 2 -27 10 -33 18 -7 8 -24 14 -39 14 -15 0 -32 5 -38 11 -16
16 -43 4 -43 -18 1 -28 27 -56 62 -68 18 -5 34 -18 36 -27 5 -26 -17 -22 -45
8 -31 33 -49 26 -46 -19 2 -30 -1 -36 -20 -39 -16 -2 -26 -14 -35 -43 -16 -48
-16 -48 -41 -40 -15 4 -21 15 -21 35 0 16 -5 41 -12 55 -9 21 -9 31 0 46 17
27 15 47 -8 59 -10 6 -24 27 -30 48 -13 48 -13 52 3 52 16 0 57 41 57 57 0 5
-8 18 -19 27 -10 9 -21 31 -25 48 -3 16 -19 46 -35 66 -44 57 -59 94 -72 171
-12 70 -12 72 13 99 14 15 37 50 53 77 24 44 28 60 27 128 -1 43 -6 86 -12 97
-15 29 -12 58 8 64 9 4 32 20 50 36 263 231 258 228 362 274 48 21 211 46 230
35 11 -6 12 -8 1 -9 -7 0 -26 -11 -43 -25 -16 -14 -35 -25 -42 -25 -7 0 -30
-13 -50 -29 l-37 -30 47 -7 47 -7 -24 -18 c-20 -16 -22 -20 -9 -29 8 -5 36 -9
62 -8 45 2 51 -1 99 -47 42 -41 79 -97 79 -119 0 -12 -35 -13 -101 0 -41 8
-110 14 -154 14 -107 0 -158 -25 -247 -118 l-68 -70 0 -60 c0 -33 -3 -67 -6
-75 -3 -8 3 -22 12 -32 23 -22 74 -14 123 20 50 34 69 32 86 -9 12 -29 22 -36
64 -46 112 -27 94 -73 -87 -227 -28 -24 -53 -55 -57 -70 -3 -16 -12 -35 -20
-43 -7 -8 -16 -30 -20 -48 -8 -40 15 -53 55 -30 23 13 29 13 46 1 25 -18 69
-8 111 26 l34 26 -22 18 -22 18 28 29 c16 16 36 32 46 35 10 3 21 14 24 24 3
10 17 23 31 30 26 11 26 11 19 -16 -11 -43 -18 -152 -10 -180 l6 -26 39 38 40
39 -7 90 c-3 50 -9 95 -13 99 -4 5 -17 4 -29 -2 -12 -7 -21 -8 -21 -2 0 5 6
12 13 15 8 3 3 13 -15 28 -16 13 -28 30 -28 38 0 8 18 42 40 75 22 33 40 63
40 66 0 4 13 10 30 14 35 8 42 16 55 70 9 34 17 43 58 62 26 13 47 27 47 33 0
5 9 10 19 10 20 0 31 -38 34 -112 1 -27 4 -33 12 -23 8 12 15 10 38 -10 15
-13 27 -30 27 -38 0 -8 9 -22 21 -33 15 -13 19 -26 15 -45 -7 -34 32 -110 61
-120 15 -6 28 -3 42 9 30 25 17 56 -40 97 -41 30 -49 40 -49 67 0 34 26 86 62
125 16 18 19 30 15 60 -6 31 -3 41 15 54 21 16 21 18 5 58 -21 53 -22 49 15
59 45 11 56 33 32 65 -28 38 -87 37 -159 -4 -45 -25 -58 -29 -70 -19 -17 14
-20 82 -6 109 7 13 2 29 -19 61 -16 25 -32 58 -35 75 -12 58 -16 65 -51 81
-40 19 -43 36 -10 57 20 13 29 14 56 4 27 -10 33 -10 41 6 17 29 44 19 97 -34
40 -40 52 -59 54 -87 3 -41 21 -46 26 -8 5 40 -56 124 -110 152 -30 16 -158
17 -273 2z m146 -307 c31 -31 40 -81 15 -81 -18 0 -73 45 -87 71 -24 46 28 53
72 10z m196 -383 c-16 -10 -25 -10 -31 1 -3 5 1 11 9 15 8 3 15 18 16 33 1 26
2 25 9 -7 6 -24 5 -37 -3 -42z m-1485 -242 c67 0 67 1 -19 -89 -64 -66 -75
-87 -48 -87 8 0 15 4 15 10 0 13 97 40 118 33 9 -3 25 -15 34 -27 9 -11 20
-18 24 -14 4 4 1 14 -5 22 -8 10 -10 30 -5 63 9 63 12 68 36 46 42 -38 79
-102 77 -135 -1 -18 5 -51 13 -73 31 -83 -6 -145 -86 -145 -84 1 -174 70 -247
190 -18 30 -37 58 -42 61 -5 4 -4 15 2 27 6 11 11 36 11 54 0 44 26 82 49 71
9 -4 42 -8 73 -7z m276 -542 c12 -8 22 -24 22 -37 0 -12 7 -31 15 -41 8 -11
15 -30 15 -43 0 -23 19 -62 68 -143 12 -19 22 -43 22 -52 0 -21 -20 -24 -38
-6 -9 9 -12 9 -12 -1 0 -7 14 -26 30 -41 17 -15 30 -34 30 -42 0 -8 4 -18 9
-24 14 -15 21 -48 13 -62 -12 -18 -82 19 -107 57 -21 33 -35 40 -35 17 0 -8 7
-16 15 -20 8 -3 15 -12 15 -21 0 -8 7 -15 15 -15 8 0 15 -9 15 -19 0 -11 5
-23 10 -26 6 -3 10 -13 10 -21 0 -20 -57 38 -130 131 -30 39 -60 75 -66 80 -6
6 -26 32 -45 58 -30 43 -32 50 -17 58 14 8 15 13 3 35 -17 33 -8 63 23 75 23
9 24 13 18 56 -8 58 5 76 48 67 17 -3 41 -12 54 -20z m1200 -94 c4 -59 -11
-68 -51 -34 -20 16 -36 32 -36 36 -1 11 52 38 69 35 9 -1 16 -15 18 -37z
m-738 -67 c0 -13 -4 -23 -8 -23 -17 0 -44 40 -38 55 8 23 46 -3 46 -32z m436
33 c18 -14 16 -16 -29 -35 -66 -28 -99 -28 -95 1 2 14 15 26 38 34 47 17 63
17 86 0z m254 -206 c0 -21 -24 -28 -35 -10 -8 14 3 30 21 30 8 0 14 -9 14 -20z
m-210 -5 c9 -11 8 -19 -7 -39 -24 -33 -75 -44 -108 -22 -41 27 -31 42 40 62
56 16 61 16 75 -1z m-322 -597 c-2 -47 -8 -83 -14 -85 -6 -2 -18 14 -28 34
-16 37 -16 40 4 86 12 26 25 47 31 47 6 0 9 -32 7 -82z"/>
<path d="M10450 10288 c-30 -10 -59 -24 -64 -29 -6 -5 -16 -9 -23 -9 -8 0 -36
-17 -63 -37 -35 -26 -47 -40 -39 -48 7 -7 14 -5 23 8 14 18 56 24 56 7 0 -5
-9 -14 -20 -20 -13 -7 -20 -21 -20 -41 0 -17 9 -42 20 -56 11 -14 20 -31 20
-38 0 -7 7 -18 15 -25 8 -7 15 -21 15 -31 0 -11 5 -28 12 -39 10 -15 9 -23 -6
-39 -28 -31 -36 -26 -36 20 0 38 -26 101 -58 140 -7 9 -12 21 -10 27 2 5 -1
12 -7 14 -5 1 -11 -7 -13 -19 -2 -15 -10 -23 -23 -23 -10 0 -19 -5 -19 -11 0
-11 -60 -69 -72 -69 -10 0 -110 -155 -139 -215 -13 -27 -29 -57 -35 -65 -7 -8
-14 -26 -16 -39 -4 -32 -24 -37 -33 -9 -7 20 -9 17 -12 -17 -3 -22 -11 -43
-18 -48 -8 -4 -17 -24 -20 -45 -4 -20 -11 -48 -17 -62 -5 -14 -14 -47 -18 -75
-4 -27 -19 -95 -33 -150 -33 -131 -45 -292 -24 -334 12 -23 13 -40 5 -83 -12
-62 -4 -247 16 -398 8 -58 19 -150 26 -205 6 -55 16 -127 22 -160 6 -33 15
-82 19 -110 20 -136 32 -207 45 -278 21 -117 19 -139 -16 -165 -37 -27 -40
-66 -7 -93 12 -10 26 -18 30 -19 5 0 23 -11 40 -24 30 -21 97 -55 141 -70 26
-9 56 21 56 56 0 34 16 68 31 68 6 0 31 18 55 39 25 22 77 58 117 82 39 24 76
46 82 51 46 37 137 98 148 98 12 0 153 90 234 149 23 17 49 31 57 31 15 0 66
55 66 71 0 6 9 7 20 4 21 -7 53 13 113 69 15 14 42 33 60 42 18 9 46 30 63 48
16 17 49 48 73 69 46 40 49 58 10 68 -20 6 -18 7 13 8 49 1 88 17 88 36 0 8
12 25 26 38 45 37 94 93 132 149 20 29 39 55 42 58 18 18 50 72 55 93 6 22 3
26 -24 32 -45 10 -39 29 7 22 45 -8 53 -2 70 45 14 40 10 58 -14 58 -8 0 -14
5 -14 10 0 6 9 10 20 10 11 0 20 5 20 10 0 6 -12 10 -26 10 -19 0 -25 4 -22
18 3 13 13 17 48 15 24 -1 47 3 51 9 12 19 -12 57 -38 60 -38 5 -22 23 22 23
29 0 40 4 43 17 2 12 -5 19 -25 23 -52 12 -83 27 -83 42 0 15 36 15 85 -1 33
-11 55 15 65 74 5 30 14 78 19 105 5 28 7 92 4 144 l-6 94 -57 56 c-60 59 -64
69 -79 192 -7 57 -26 96 -70 139 -14 14 -52 54 -84 88 -62 67 -218 175 -330
229 -37 18 -70 33 -72 33 -3 0 -33 13 -67 28 -154 69 -221 83 -413 87 -139 3
-167 1 -215 -17z m222 -30 c-8 -8 -17 -8 -34 0 -22 10 -21 11 12 11 26 1 31
-2 22 -11z m-194 -25 c-10 -2 -26 -2 -35 0 -10 3 -2 5 17 5 19 0 27 -2 18 -5z
m380 0 c-16 -2 -40 -2 -55 0 -16 2 -3 4 27 4 30 0 43 -2 28 -4z m-468 -33
c-20 -13 -40 -13 -40 0 0 6 12 10 28 10 21 0 24 -2 12 -10z m585 -20 c3 -5 19
-10 34 -10 15 0 31 -3 35 -7 3 -4 16 -8 28 -10 12 -2 29 -10 38 -18 9 -8 27
-15 39 -15 17 0 21 -4 16 -19 -4 -12 0 -21 12 -25 10 -4 19 -2 21 3 5 14 42
14 42 1 0 -5 5 -10 11 -10 11 0 84 -52 104 -74 6 -6 29 -26 53 -45 85 -66 201
-244 224 -341 15 -64 20 -186 11 -250 -7 -45 -12 -56 -29 -58 -25 -4 -176 86
-171 101 3 9 64 49 97 63 8 4 28 21 44 37 27 29 28 34 21 91 -3 34 -13 68 -21
77 -8 8 -14 23 -14 31 0 9 -7 21 -15 28 -8 7 -15 19 -15 26 0 8 -4 14 -10 14
-5 0 -15 11 -22 24 -41 75 -195 229 -250 249 -10 4 -18 11 -18 17 0 5 -9 10
-20 10 -14 0 -20 -7 -20 -24 0 -25 -16 -36 -55 -36 -13 0 -27 -4 -30 -10 -3
-5 -19 -10 -36 -10 -18 0 -28 -5 -26 -12 1 -7 -8 -14 -20 -16 -27 -4 -30 13
-6 26 13 8 11 11 -16 17 -18 4 -35 14 -39 23 -3 10 -16 25 -29 35 -23 18 -32
67 -13 67 6 0 10 14 10 30 0 30 21 42 35 20z m-49 -187 c-8 -8 -36 5 -36 17 0
7 6 7 21 0 11 -7 18 -14 15 -17z m84 -110 c39 -21 83 -44 97 -52 22 -11 24
-17 18 -45 -11 -46 -8 -66 11 -87 17 -19 16 -23 -10 -97 -15 -42 -30 -88 -33
-102 -3 -14 -18 -38 -33 -55 -51 -55 -51 -106 0 -124 17 -5 30 -14 30 -18 0
-4 -9 -40 -20 -78 -11 -38 -20 -82 -20 -97 0 -15 -8 -33 -19 -40 -24 -17 -50
-68 -55 -111 -2 -18 -16 -47 -30 -62 -15 -16 -29 -40 -32 -54 -9 -47 -20 -56
-58 -54 -20 1 -47 10 -60 18 -14 9 -35 15 -48 13 -20 -3 -23 -8 -23 -53 -1
-64 -10 -79 -46 -71 -24 5 -33 -1 -64 -38 -37 -45 -42 -65 -24 -83 8 -8 0 -18
-27 -37 -54 -37 -68 -34 -88 19 -19 48 -31 55 -52 28 -20 -26 -17 -61 6 -73
21 -11 27 -44 10 -55 -5 -3 -10 -16 -10 -27 0 -11 -13 -43 -30 -70 -30 -49
-38 -96 -20 -114 20 -20 -18 -54 -59 -54 -64 0 -76 23 -72 141 1 55 9 123 17
152 18 68 19 64 -16 82 -19 10 -30 23 -30 36 0 18 4 20 27 14 15 -3 30 -10 33
-14 42 -60 60 -64 82 -17 15 34 -4 56 -46 56 -21 0 -36 7 -46 23 -29 42 -27
50 12 88 31 29 39 43 36 66 -3 25 -7 28 -38 28 l-35 0 3 45 c3 36 10 51 36 75
17 17 46 55 64 85 42 71 52 87 84 137 30 47 58 122 58 156 0 12 20 44 45 72
25 27 45 54 45 58 0 5 14 26 30 47 44 55 49 92 16 125 -15 14 -24 31 -20 36 3
5 29 27 57 48 29 21 78 64 110 95 32 31 63 56 68 56 5 0 18 -9 29 -20 21 -21
55 -26 65 -10 3 5 -5 15 -19 22 -14 6 -26 15 -26 20 0 19 53 6 120 -29z
m-1180 -1028 c7 -8 20 -15 29 -15 9 0 34 -12 56 -25 l40 -25 -39 0 c-43 0
-116 42 -116 66 0 18 14 18 30 -1z m-11 -92 c0 -33 -1 -35 -9 -15 -8 20 -4 52
6 52 2 0 4 -17 3 -37z m1841 -8 c0 -14 -4 -25 -9 -25 -5 0 -16 -3 -24 -6 -9
-3 -16 2 -19 13 -8 29 2 43 28 43 19 0 24 -5 24 -25z m-1807 -71 c5 -16 15
-43 23 -61 8 -17 14 -36 14 -42 0 -6 4 -11 9 -11 5 0 13 -9 16 -21 25 -79 238
-313 345 -379 8 -5 11 -12 7 -17 -4 -4 -16 -2 -25 4 -9 7 -35 22 -57 33 -73
40 -161 119 -224 202 -41 55 -111 183 -111 204 0 6 -7 17 -15 24 -18 15 -21
104 -3 98 6 -2 16 -17 21 -34z m7 -225 c0 -16 7 -46 15 -66 8 -19 15 -59 15
-88 0 -28 7 -66 15 -83 18 -35 17 -159 0 -155 -5 2 -13 33 -16 70 -9 111 -30
226 -46 261 -9 22 -13 46 -8 68 7 41 25 36 25 -7z m815 -59 c3 -5 20 -14 38
-19 30 -8 30 -9 6 -10 -14 -1 -43 8 -65 19 -36 18 -37 19 -12 20 15 0 30 -4
33 -10z m131 -59 c-3 -5 -15 -7 -26 -4 -28 7 -25 13 6 13 14 0 23 -4 20 -9z
m49 -38 c-12 -8 -23 -9 -28 -4 -15 15 1 30 24 24 21 -6 21 -7 4 -20z m152 -60
c13 -33 -153 -145 -287 -196 -56 -21 -79 -21 -116 -2 -16 8 -54 15 -84 15 -30
0 -68 7 -84 15 -15 8 -43 15 -62 15 -18 0 -37 6 -41 14 -4 8 -17 15 -27 17
-23 5 -34 29 -13 29 9 0 22 -7 31 -15 8 -8 25 -15 38 -15 13 0 33 -7 44 -15
30 -23 225 -20 295 4 83 29 233 110 243 132 11 24 54 25 63 2z m-242 -13 c3
-6 -1 -13 -10 -16 -19 -8 -30 0 -20 15 8 14 22 14 30 1z m-566 -191 c36 -39
41 -42 117 -49 91 -10 114 -17 114 -35 0 -28 -31 -45 -81 -45 -56 0 -63 -12
-19 -35 17 -9 30 -22 30 -29 0 -8 3 -22 6 -31 5 -13 2 -15 -20 -9 -16 4 -26 2
-26 -5 0 -6 5 -11 10 -11 6 0 10 -5 10 -11 0 -7 -10 -9 -25 -7 -21 5 -25 2
-20 -13 4 -13 1 -19 -8 -19 -8 0 -30 -13 -48 -30 -19 -16 -41 -30 -50 -30 -9
0 -19 -7 -23 -15 -7 -20 -18 -19 -44 5 -29 27 -28 46 9 125 31 68 30 80 -6 87
-23 4 -31 48 -20 106 6 34 7 34 27 15 l21 -18 -6 48 c-8 59 2 60 52 6z m441
-53 c0 -15 -37 -32 -47 -22 -3 3 -3 12 0 21 8 19 47 20 47 1z m-630 -381 c10
-26 24 -32 35 -15 3 6 14 10 23 10 14 -1 14 -2 -3 -12 -11 -6 -23 -16 -27 -22
-13 -19 -58 11 -58 39 0 32 18 32 30 0z m-55 -105 c3 -5 14 -10 24 -10 10 0
24 -6 31 -14 6 -8 21 -16 32 -18 39 -6 33 -28 -7 -28 -20 0 -43 -7 -52 -16
-22 -21 -37 -4 -35 41 1 19 -3 35 -8 35 -6 0 -10 5 -10 10 0 6 4 10 9 10 6 0
13 -4 16 -10z"/>
<path d="M11001 9826 c-8 -9 -8 -22 -2 -38 13 -35 37 -42 56 -15 21 31 19 46
-11 57 -32 12 -29 13 -43 -4z"/>
<path d="M10766 9788 c-14 -44 -14 -67 -1 -84 15 -19 16 -18 35 5 22 26 25 43
10 72 -12 21 -39 26 -44 7z"/>
<path d="M10880 9690 c-24 -45 10 -99 45 -70 25 21 17 84 -12 88 -14 2 -26 -4
-33 -18z"/>
<path d="M11006 9618 c-20 -28 -20 -52 -1 -68 16 -14 51 -5 58 15 9 22 -8 70
-25 73 -9 2 -23 -7 -32 -20z"/>
<path d="M10691 9581 c-16 -29 -13 -61 5 -68 22 -8 46 24 42 57 -4 31 -33 38
-47 11z"/>
<path d="M10806 9541 c-25 -28 -17 -65 15 -69 18 -2 29 4 39 22 12 23 11 28
-5 46 -22 25 -28 25 -49 1z"/>
<path d="M10906 9458 c-22 -32 -20 -47 9 -54 45 -11 71 29 39 60 -21 21 -30
20 -48 -6z"/>
<path d="M10592 9428 c-7 -7 -12 -27 -12 -45 0 -26 4 -33 20 -33 26 0 54 43
45 70 -7 22 -34 27 -53 8z"/>
<path d="M10714 9385 c-32 -49 11 -93 53 -54 27 26 29 42 7 63 -22 23 -41 20
-60 -9z"/>
<path d="M10837 9322 c-23 -25 -21 -48 5 -66 38 -27 63 17 38 65 -13 24 -22
24 -43 1z"/>
<path d="M10520 9266 c-18 -50 11 -74 44 -37 23 25 17 55 -12 59 -16 3 -25 -3
-32 -22z"/>
<path d="M10961 9254 c-22 -28 -19 -50 10 -59 47 -15 83 51 40 75 -26 14 -27
14 -50 -16z"/>
<path d="M10638 9215 c-8 -19 -8 -28 2 -40 20 -24 49 -18 60 11 19 50 -40 78
-62 29z"/>
<path d="M10759 9174 c-14 -38 -3 -64 27 -64 32 0 51 38 35 69 -16 30 -49 27
-62 -5z"/>
<path d="M10425 9140 c-9 -29 3 -60 24 -60 25 0 41 20 41 52 0 24 -4 28 -29
28 -21 0 -32 -6 -36 -20z"/>
<path d="M10886 9132 c-2 -4 -7 -23 -11 -43 -8 -41 11 -57 46 -39 34 19 20 90
-17 90 -7 0 -15 -3 -18 -8z"/>
<path d="M10557 9103 c-4 -3 -7 -19 -7 -34 0 -39 34 -57 61 -33 24 21 24 36 1
57 -19 18 -44 22 -55 10z"/>
<path d="M10680 9036 c-28 -35 11 -93 48 -70 35 22 22 84 -18 84 -10 0 -23 -7
-30 -14z"/>
<path d="M10347 8983 c-4 -3 -7 -17 -7 -30 0 -19 5 -23 28 -23 32 0 52 16 52
42 0 14 -8 18 -33 18 -19 0 -37 -3 -40 -7z"/>
<path d="M10797 8983 c-15 -14 -6 -53 15 -67 20 -14 24 -14 40 1 24 21 23 39
-4 57 -24 17 -41 20 -51 9z"/>
<path d="M10486 8957 c-26 -19 -18 -81 10 -85 17 -2 24 5 33 29 15 43 14 47
-8 58 -13 7 -23 6 -35 -2z"/>
<path d="M10600 8890 c-14 -34 -1 -60 29 -60 40 0 54 45 23 73 -26 24 -38 21
-52 -13z"/>
<path d="M10391 8804 c-26 -18 -27 -60 -3 -73 26 -14 42 0 48 41 7 42 -12 55
-45 32z"/>
<path d="M10511 8744 c-26 -33 -26 -38 1 -64 20 -18 23 -19 40 -3 20 18 23 45
8 74 -14 26 -25 24 -49 -7z"/>
<path d="M10317 8503 c-9 -16 -6 -92 3 -98 5 -3 23 9 39 27 l30 33 -21 23
c-22 22 -43 28 -51 15z"/>
<path d="M10306 8261 c-3 -5 1 -11 9 -15 15 -6 29 7 18 18 -9 9 -21 8 -27 -3z"/>
<path d="M10167 10090 c-21 -21 -34 -41 -30 -43 5 -3 25 12 46 33 21 21 34 41
30 43 -5 3 -25 -12 -46 -33z"/>
<path d="M6092 9620 c0 -19 2 -27 5 -17 2 9 2 25 0 35 -3 9 -5 1 -5 -18z"/>
<path d="M5540 8899 c0 -38 24 -35 28 4 2 19 -1 27 -12 27 -11 0 -16 -10 -16
-31z"/>
<path d="M4928 8303 c-15 -18 -38 -96 -38 -128 0 -11 7 -15 22 -13 18 2 24 12
30 45 4 23 12 51 17 62 11 20 5 51 -9 51 -4 0 -14 -8 -22 -17z"/>
<path d="M4991 8224 c-12 -26 -21 -52 -21 -59 0 -7 -7 -16 -16 -19 -19 -7 -16
-33 12 -109 16 -45 37 -67 50 -54 3 3 0 31 -6 63 -16 77 -15 118 4 146 18 25
21 64 7 73 -6 3 -19 -15 -30 -41z"/>
<path d="M3862 7915 c-16 -34 -15 -45 2 -45 11 0 14 -9 10 -37 -4 -34 -3 -36
7 -15 15 27 33 24 37 -6 2 -14 -2 -22 -11 -22 -8 0 -17 -6 -20 -14 -4 -9 -14
-12 -26 -9 -15 4 -23 -1 -31 -18 -5 -13 -14 -31 -19 -39 -30 -52 -47 -155 -26
-155 11 0 45 89 45 117 0 11 11 23 27 29 40 15 63 39 63 66 0 14 6 23 15 23
39 0 24 48 -38 123 l-23 28 -12 -26z"/>
<path d="M3740 7811 c0 -18 35 -71 45 -68 20 7 16 38 -7 57 -25 21 -38 25 -38
11z"/>
<path d="M5884 7473 c3 -27 10 -98 16 -160 5 -61 15 -124 22 -139 l13 -28 6
39 c9 55 -8 199 -33 273 -11 34 -23 62 -26 62 -2 0 -2 -21 2 -47z"/>
<path d="M9990 7263 c0 -5 11 -13 25 -20 27 -12 33 -5 13 15 -13 13 -38 16
-38 5z"/>
<path d="M5312 7071 c-7 -4 -15 -24 -18 -44 l-4 -37 47 0 c27 0 66 -5 88 -11
124 -31 268 -24 331 18 25 16 25 18 8 24 -11 4 -80 13 -154 19 -74 7 -166 19
-205 26 -82 16 -76 16 -93 5z"/>
<path d="M3410 6994 c0 -8 -6 -25 -12 -37 -13 -24 -30 -77 -53 -172 -9 -33
-22 -87 -31 -120 -8 -33 -19 -80 -24 -105 -4 -25 -20 -89 -34 -144 -14 -54
-26 -107 -26 -118 0 -11 -6 -50 -14 -87 -36 -171 -46 -247 -46 -365 0 -104 3
-126 15 -126 30 0 49 73 70 270 8 82 34 255 50 345 8 44 15 97 15 117 0 62 30
201 76 347 8 25 14 57 14 72 0 14 7 45 15 68 14 41 12 71 -6 71 -5 0 -9 -7 -9
-16z"/>
<path d="M6465 6939 c-63 -26 -72 -33 -78 -67 -6 -30 7 -52 32 -52 24 0 101
88 101 116 0 13 -1 24 -2 23 -2 0 -25 -9 -53 -20z"/>
<path d="M9882 6920 c-22 -9 -132 -31 -162 -33 -8 0 -54 3 -102 8 l-88 7 -36
-36 c-42 -42 -40 -59 7 -67 34 -5 124 -52 135 -71 3 -5 -4 -17 -17 -26 -46
-32 -215 -108 -304 -136 -50 -15 -118 -42 -153 -58 -61 -30 -63 -30 -77 -12
-8 11 -17 31 -20 46 -4 15 -13 32 -21 39 -8 6 -14 17 -14 24 0 7 -7 18 -15 25
-8 7 -15 28 -15 46 0 19 -4 34 -10 34 -5 0 -16 16 -24 35 -8 19 -21 35 -28 35
-31 0 -58 -14 -73 -36 -14 -21 -13 -26 6 -61 12 -21 27 -45 35 -54 8 -8 14
-21 14 -28 0 -6 7 -14 15 -17 8 -4 15 -12 15 -20 0 -7 13 -32 29 -56 39 -59
91 -158 91 -174 0 -25 -17 -15 -44 25 -29 42 -58 60 -65 40 -4 -14 -51 38 -51
58 0 7 -7 16 -15 19 -8 4 -15 13 -15 20 0 19 -28 62 -61 95 -15 14 -30 36 -34
48 -3 11 -15 26 -27 32 -16 9 -41 0 -141 -49 -67 -33 -142 -67 -167 -77 -25
-10 -54 -21 -65 -26 -11 -4 -60 -24 -110 -45 -49 -20 -103 -42 -120 -49 -16
-7 -50 -21 -75 -30 -86 -33 -115 -52 -118 -80 -3 -21 -14 -31 -59 -50 -30 -14
-78 -32 -107 -40 -28 -8 -99 -33 -157 -55 -80 -30 -119 -39 -154 -38 -31 2
-49 -1 -52 -9 -7 -21 46 -34 106 -27 47 5 60 3 81 -14 21 -17 22 -22 11 -36
-13 -15 -4 -16 104 -10 89 6 116 4 111 -4 -4 -7 -11 -12 -16 -12 -5 0 -44 -26
-87 -58 -43 -33 -94 -64 -114 -71 -20 -6 -90 -41 -155 -76 -66 -36 -125 -65
-132 -65 -7 0 -49 -18 -93 -41 -45 -22 -113 -53 -153 -69 -39 -16 -109 -45
-156 -64 -85 -36 -120 -44 -120 -27 0 12 136 131 195 171 73 48 95 71 95 96 0
31 -17 39 -39 20 -10 -9 -23 -16 -29 -16 -20 0 -195 -61 -222 -77 -14 -9 -48
-33 -75 -54 -79 -59 -91 -61 -168 -29 -38 17 -69 25 -72 19 -13 -20 -25 -7
-25 25 0 29 -10 43 -57 89 -79 76 -104 157 -52 170 11 3 19 14 19 26 0 12 6
21 14 21 7 0 26 12 41 26 l28 26 -45 46 c-50 53 -123 148 -157 205 -27 43 -54
57 -97 50 -34 -7 -73 -49 -74 -81 0 -13 -12 -34 -27 -48 -16 -13 -37 -33 -49
-44 -12 -11 -27 -20 -33 -20 -7 0 -27 -11 -45 -25 -25 -19 -35 -22 -44 -13
-10 10 -17 10 -31 1 -14 -9 -25 -8 -46 3 -15 7 -38 11 -51 8 -14 -4 -34 0 -47
9 -13 8 -32 17 -42 19 -20 5 -20 5 0 13 11 5 34 22 50 37 17 15 34 28 39 28 4
0 28 14 53 30 24 17 46 30 49 30 3 0 28 18 57 39 29 21 79 53 112 71 33 18 76
42 95 53 75 46 135 139 78 121 -20 -6 -112 -60 -216 -126 -15 -10 -36 -22 -47
-28 -11 -6 -33 -19 -50 -29 -16 -11 -50 -31 -75 -44 -25 -14 -74 -41 -110 -61
-62 -35 -487 -247 -671 -335 -125 -60 -137 -61 -188 -15 -23 21 -50 57 -60 79
-12 27 -29 46 -47 53 -16 7 -37 26 -46 42 -9 16 -33 36 -53 44 -32 14 -78 47
-153 111 -44 38 -106 65 -148 65 -22 0 -63 8 -90 17 -50 17 -258 135 -269 153
-8 13 -35 13 -35 0 0 -5 9 -19 21 -31 15 -15 19 -28 15 -45 -5 -17 -2 -26 9
-30 9 -4 22 -19 31 -35 12 -24 21 -29 52 -29 51 0 85 -25 78 -56 -6 -23 -4
-24 42 -24 57 0 112 -17 112 -33 -1 -7 -26 -24 -58 -39 -31 -15 -84 -45 -117
-67 -33 -22 -68 -40 -77 -40 -10 -1 -18 -5 -18 -10 0 -15 70 -1 135 28 82 37
173 66 181 59 25 -25 -49 -81 -166 -126 -205 -78 -231 -99 -173 -137 25 -17
29 -17 72 -1 176 67 239 68 159 4 -50 -40 -80 -58 -160 -92 -45 -19 -58 -30
-58 -47 0 -19 4 -21 38 -15 20 4 54 9 76 13 l38 5 -55 -73 c-31 -41 -54 -75
-52 -78 7 -6 75 29 75 39 0 5 16 16 35 25 19 9 39 23 46 31 6 8 16 14 21 14 6
0 29 15 51 33 61 47 99 58 192 52 77 -6 82 -5 125 24 25 17 62 42 83 56 41 28
51 15 18 -26 -10 -14 -25 -40 -33 -59 -8 -19 -41 -72 -73 -117 -49 -68 -63
-81 -80 -77 -18 4 -34 -11 -92 -88 -39 -52 -95 -121 -124 -154 -94 -103 -299
-297 -358 -338 -31 -21 -74 -54 -96 -71 -22 -18 -56 -42 -75 -54 -29 -18 -32
-21 -13 -21 12 0 25 5 28 10 4 6 23 17 43 26 39 16 112 63 202 130 30 22 93
67 140 99 91 63 411 365 519 490 24 28 61 62 83 77 22 15 62 48 90 73 27 25
54 45 59 45 11 0 12 -57 0 -64 -4 -3 -11 -25 -14 -49 -3 -23 -9 -51 -13 -60
-13 -35 21 -15 82 48 35 36 68 65 73 65 5 0 13 -21 16 -47 3 -27 10 -58 16
-71 5 -13 9 -32 9 -42 0 -46 46 -10 111 85 51 77 100 125 126 125 29 0 29 -13
0 -53 -35 -48 -102 -183 -126 -254 -27 -80 -27 -126 -1 -144 20 -14 20 -14 -4
-79 -12 -36 -41 -102 -64 -147 -23 -45 -51 -110 -63 -145 -26 -75 -54 -129
-107 -206 -21 -32 -52 -85 -67 -119 -19 -41 -35 -63 -48 -65 -11 -2 -24 -13
-28 -26 -8 -22 -7 -23 29 -16 20 4 39 10 42 14 12 15 40 19 40 5 0 -8 -8 -15
-18 -15 -13 0 -23 -12 -31 -38 -11 -32 -19 -40 -54 -50 -23 -7 -53 -13 -67
-15 -22 -2 -25 2 -25 31 0 17 -4 32 -10 33 -26 3 -62 -4 -87 -17 -34 -17 -101
-117 -101 -149 1 -18 -5 -25 -18 -25 -11 0 -25 -11 -32 -27 -6 -15 -31 -46
-54 -69 -31 -32 -46 -58 -58 -101 -9 -32 -20 -66 -25 -75 -6 -10 -10 -23 -10
-29 0 -16 71 -4 112 20 18 11 58 29 88 42 30 13 73 36 94 51 22 16 57 31 79
35 21 3 51 16 66 29 26 21 29 22 44 6 16 -15 19 -14 46 12 16 15 37 46 47 68
17 37 69 97 192 223 100 101 143 164 168 242 14 43 43 108 65 144 21 36 39 76
39 88 0 34 30 187 50 253 10 35 13 61 8 66 -6 6 2 12 19 17 35 8 53 23 53 44
0 9 4 23 10 31 7 12 16 7 45 -23 22 -22 45 -37 60 -37 54 0 117 62 127 125 2
14 12 21 32 23 28 3 28 3 21 -37 -8 -48 9 -62 47 -37 23 15 27 14 78 -24 30
-22 81 -63 113 -92 32 -29 73 -62 91 -73 19 -11 73 -47 121 -80 47 -33 105
-71 127 -84 22 -12 76 -49 119 -81 66 -49 88 -60 134 -65 73 -10 152 1 233 32
37 13 81 29 97 34 17 5 39 13 50 17 11 5 47 17 80 27 33 10 74 24 90 31 17 7
80 29 140 48 61 20 119 41 130 46 11 5 72 30 135 55 137 56 333 150 433 208
40 23 95 53 123 67 27 14 69 40 94 58 l45 33 50 -54 c27 -30 77 -75 110 -100
34 -25 77 -63 97 -85 19 -21 53 -49 75 -61 33 -19 83 -85 102 -136 35 -93 78
-145 122 -145 55 0 104 107 64 140 -8 7 -15 20 -15 30 0 10 -6 23 -14 29 -31
26 -27 111 5 111 6 0 36 -17 67 -39 72 -49 137 -71 208 -71 60 0 77 16 56 51
-32 51 0 51 53 0 52 -51 111 -81 157 -81 40 0 53 -14 92 -95 11 -22 36 -57 55
-77 29 -31 42 -38 73 -38 50 0 57 19 29 74 -11 24 -21 46 -21 50 0 4 -16 28
-35 53 -19 25 -49 82 -66 127 -36 95 -40 100 -99 146 -25 19 -61 48 -81 65
-67 57 -85 72 -140 112 -30 22 -66 57 -79 76 -36 53 -47 56 -277 94 -40 6 -44
-14 -12 -55 l21 -27 -64 -7 c-34 -3 -76 -9 -91 -13 -17 -5 -45 -2 -69 6 -45
15 -58 5 -58 -43 0 -24 -4 -28 -29 -28 -55 0 -89 -12 -102 -36 -15 -30 -29
-30 -63 -3 -25 20 -26 22 -11 39 9 10 40 28 68 40 93 38 170 74 225 105 23 13
56 26 72 30 16 4 32 11 35 16 4 5 15 9 26 9 11 0 22 6 25 14 5 14 142 86 163
86 5 0 27 20 48 45 l38 45 93 -12 c101 -12 180 -3 272 32 25 9 53 20 64 24 17
6 17 8 2 31 -22 33 -14 43 35 51 25 4 45 15 52 26 7 11 66 46 132 78 66 32
129 68 140 80 22 24 39 158 24 197 -7 18 0 29 34 62 38 37 42 46 41 87 -1 29
-8 55 -23 75 -24 32 -21 49 9 49 41 0 100 32 106 57 9 35 -18 57 -96 77 -96
25 -103 26 -128 16z m-110 -212 c-9 -9 -15 -9 -24 0 -9 9 -7 12 12 12 19 0 21
-3 12 -12z m-134 -175 l24 -15 -30 -16 c-17 -9 -51 -32 -76 -50 -54 -38 -128
-52 -175 -32 -23 9 -42 10 -78 1 -74 -16 -146 -18 -150 -4 -6 18 125 73 174
73 20 0 99 24 178 54 44 17 97 13 133 -11z m-998 -53 c11 -21 20 -51 20 -65 0
-15 12 -37 27 -52 41 -42 39 -75 -8 -138 -43 -58 -66 -71 -105 -61 -51 13 -14
59 79 97 30 12 39 43 10 32 -10 -3 -24 -11 -32 -17 -48 -37 -159 -88 -180 -81
-27 8 -53 51 -49 83 4 37 35 42 48 8 13 -34 42 -34 89 2 20 15 45 32 55 38 41
22 43 41 9 105 -33 64 -34 89 -2 89 12 0 26 -15 39 -40z m1014 -146 c9 -3 16
-12 16 -19 0 -16 -73 -62 -147 -93 -56 -24 -147 -30 -141 -10 5 15 138 87 203
109 28 10 51 18 52 18 1 1 8 -2 17 -5z m-304 -34 c0 -16 -39 -31 -88 -33 -37
-2 -47 2 -50 15 -3 13 6 18 40 21 84 7 98 7 98 -3z m-4896 -228 c2 -4 1 -14
-4 -22 -7 -11 -12 -12 -21 -3 -6 6 -8 16 -5 22 8 13 23 14 30 3z m115 -102
c64 26 59 -2 -13 -78 -60 -62 -81 -63 -71 -2 4 23 2 41 -4 45 -6 3 -11 17 -11
30 0 25 0 25 34 8 29 -13 39 -14 65 -3z m3467 5 c8 -21 -47 -72 -121 -112 -33
-18 -76 -41 -95 -52 -20 -11 -54 -23 -75 -27 -22 -4 -44 -13 -50 -20 -18 -24
-169 -104 -195 -104 l-25 0 25 20 c33 26 217 135 255 151 29 13 50 27 170 114
62 45 101 56 111 30z m-2483 -285 c92 -69 88 -65 71 -102 -8 -18 -22 -50 -31
-70 -14 -34 -20 -38 -53 -38 -57 0 -101 11 -107 27 -3 8 1 28 10 46 14 31 33
93 44 150 3 15 7 27 9 27 3 0 28 -18 57 -40z m163 -154 c-6 -36 -11 -46 -27
-46 -15 0 -19 7 -19 33 0 18 7 43 16 56 24 33 38 13 30 -43z m3416 47 c18 -16
26 -63 11 -63 -5 0 -18 -3 -31 -6 -18 -5 -25 0 -38 31 -13 31 -13 39 -2 46 20
13 40 11 60 -8z m-239 -120 c35 -24 41 -26 72 -14 38 13 57 7 89 -28 26 -29
17 -34 -39 -20 -36 9 -56 9 -86 0 -61 -18 -119 8 -119 54 0 44 27 46 83 8z
m-2115 -87 c22 -23 -183 -106 -260 -106 -48 0 -62 24 -29 51 41 34 170 70 230
65 29 -3 56 -7 59 -10z"/>
<path d="M4625 6910 c3 -5 11 -10 17 -10 6 0 32 -10 57 -21 67 -31 79 -36 151
-60 36 -11 79 -27 97 -35 17 -8 36 -14 43 -14 7 0 35 -7 64 -16 105 -33 122
-37 191 -45 269 -33 285 -32 630 12 36 5 -111 17 -215 18 -69 1 -174 8 -235
16 -60 8 -126 15 -146 15 -61 0 -233 38 -432 96 -187 54 -234 63 -222 44z"/>
<path d="M6166 6885 c-3 -9 3 -19 14 -25 11 -6 20 -19 20 -30 0 -10 5 -22 10
-25 15 -9 12 28 -6 63 -17 35 -29 40 -38 17z"/>
<path d="M6654 6775 c-8 -43 -28 -45 -49 -5 -15 29 -38 39 -49 21 -4 -5 -36
-20 -71 -33 -78 -27 -82 -36 -66 -146 6 -42 13 -98 16 -124 3 -25 13 -52 20
-58 8 -7 15 -17 15 -22 0 -5 24 -41 54 -81 63 -84 91 -137 100 -191 12 -61 37
-104 68 -115 15 -6 28 -15 28 -20 0 -19 17 -12 92 33 105 62 285 121 423 136
39 5 108 14 155 20 47 6 137 18 200 26 111 15 150 30 150 59 0 13 -119 70
-239 115 -47 17 -112 49 -145 70 -34 22 -67 40 -74 40 -7 0 -61 31 -120 68
-59 37 -147 87 -197 111 -49 23 -130 63 -180 87 -49 24 -98 44 -107 44 -12 0
-19 -11 -24 -35z"/>
<path d="M4390 6615 c28 -27 215 -108 239 -103 16 4 -60 43 -169 88 -30 13
-59 27 -64 32 -24 20 -28 6 -6 -17z"/>
<path d="M8840 6611 c0 -11 10 -27 23 -36 19 -13 22 -14 25 -1 5 21 -16 56
-33 56 -8 0 -15 -9 -15 -19z"/>
<path d="M4060 6611 c0 -5 9 -13 20 -16 11 -3 20 -11 20 -16 0 -5 8 -9 18 -9
13 0 11 6 -12 25 -30 26 -46 31 -46 16z"/>
<path d="M13200 6460 c0 -11 5 -20 10 -20 6 0 10 9 10 20 0 11 -4 20 -10 20
-5 0 -10 -9 -10 -20z"/>
<path d="M4800 6430 c0 -5 10 -10 23 -10 18 0 19 2 7 10 -19 13 -30 13 -30 0z"/>
<path d="M4865 6400 c3 -5 12 -10 19 -10 8 0 19 -6 25 -14 7 -8 27 -18 44 -22
18 -3 37 -10 42 -14 19 -15 97 -22 153 -15 l57 8 -80 13 c-44 6 -119 24 -168
38 -99 29 -100 30 -92 16z"/>
<path d="M13194 6364 c-8 -33 6 -59 32 -59 15 0 19 7 19 40 0 34 -4 40 -22 43
-17 3 -24 -3 -29 -24z"/>
<path d="M3161 5471 c-7 -5 -15 -28 -18 -52 -3 -24 -12 -52 -21 -61 -15 -18
-10 -48 8 -48 5 0 10 8 10 18 0 10 5 23 11 29 6 6 14 26 18 45 4 18 11 33 16
33 15 0 18 -64 5 -80 -8 -10 -8 -28 2 -69 21 -93 38 -63 38 70 0 77 -1 81 -28
101 -17 12 -34 18 -41 14z"/>
<path d="M4200 5452 c-14 -9 -34 -25 -45 -35 -11 -10 -40 -29 -65 -44 -25 -14
-67 -42 -95 -62 -27 -21 -78 -55 -113 -77 -35 -21 -75 -47 -90 -56 -15 -9 -38
-23 -52 -30 -14 -8 -58 -34 -98 -59 -40 -24 -84 -50 -98 -58 -18 -9 -23 -16
-16 -23 7 -7 20 -5 39 4 15 8 44 22 63 30 45 20 260 126 280 138 8 5 49 30 90
54 53 31 100 71 158 134 45 50 82 93 82 96 0 10 -14 6 -40 -12z"/>
<path d="M3297 5413 c-4 -3 -7 -23 -7 -43 0 -20 -5 -41 -10 -46 -6 -6 -14 -41
-20 -80 -5 -38 -12 -80 -16 -93 -5 -18 -4 -23 7 -19 23 7 39 49 39 101 0 49
19 109 39 121 21 13 24 -26 7 -94 -18 -75 -21 -140 -7 -140 16 0 23 19 37 99
19 107 18 128 -12 167 -25 33 -43 41 -57 27z"/>
<path d="M3131 5258 c-12 -38 -11 -43 6 -54 10 -7 26 -21 35 -30 23 -23 34
-11 20 21 -7 14 -12 37 -12 50 0 65 -31 74 -49 13z"/>
<path d="M3088 4986 c-12 -28 -3 -65 12 -50 5 5 13 24 16 42 8 39 -11 44 -28
8z"/>
<path d="M4818 4968 c-19 -15 -58 -86 -58 -105 0 -36 29 -1 61 73 20 48 20 50
-3 32z"/>
<path d="M5907 4937 c-3 -7 -41 -64 -85 -127 -88 -127 -184 -225 -252 -260
-24 -12 -58 -32 -75 -44 -34 -24 -155 -124 -170 -141 -5 -6 -19 -15 -30 -19
-19 -8 -19 -9 5 -15 38 -10 35 -40 -11 -101 -23 -30 -47 -68 -54 -85 -19 -44
-53 -83 -86 -100 -39 -21 -37 -35 6 -35 24 0 39 -6 47 -20 7 -11 22 -20 33
-20 58 0 58 -54 2 -145 -60 -98 -184 -192 -367 -277 l-135 -63 -95 0 -96 0
-164 81 c-148 73 -238 116 -338 160 -18 8 -40 14 -48 14 -8 0 -34 9 -57 19
-24 11 -56 23 -72 27 -17 4 -42 21 -56 38 l-27 31 -148 4 c-170 4 -232 -3
-573 -66 -13 -2 -21 -7 -17 -10 9 -9 254 -26 396 -28 120 -1 128 -2 195 -35
39 -18 90 -37 115 -41 131 -21 201 -42 347 -105 17 -8 36 -14 41 -14 13 0 72
-31 89 -46 61 -56 296 -94 476 -76 56 5 127 18 157 28 112 36 271 141 433 283
202 178 231 202 281 226 95 45 100 45 137 -20 31 -54 33 -56 49 -38 18 19 144
281 191 398 57 142 127 426 128 523 1 59 -23 34 -63 -66 -49 -123 -113 -259
-137 -294 -11 -14 -19 -35 -19 -46 0 -11 -12 -30 -26 -41 -28 -22 -54 -64 -54
-87 0 -8 -4 -14 -10 -14 -14 0 -13 37 1 46 7 4 9 22 4 49 -3 26 -2 46 5 50 5
3 10 21 10 39 0 18 15 63 34 100 19 38 38 87 41 110 4 22 20 78 36 124 29 83
37 142 20 142 -5 0 -11 -6 -14 -13z m-144 -691 c7 -16 -1 -26 -20 -26 -7 0
-13 9 -13 20 0 23 25 27 33 6z"/>
<path d="M13195 4427 c-14 -33 -14 -77 -1 -272 6 -87 5 -92 -26 -154 l-32 -63
29 -24 c21 -17 43 -24 72 -24 48 0 57 10 73 87 6 26 23 66 38 88 27 39 30 40
90 43 l62 3 0 89 0 90 -65 0 c-63 0 -67 2 -110 41 -24 22 -47 51 -51 62 -7 25
-43 67 -56 67 -5 0 -15 -15 -23 -33z"/>
<path d="M5023 4204 c-24 -14 -43 -30 -43 -35 0 -27 112 15 123 46 10 24 -32
18 -80 -11z"/>
<path d="M12114 4219 c-43 -12 -117 -80 -109 -99 12 -30 77 -70 114 -70 37 0
167 42 184 59 17 17 -4 49 -51 79 -55 35 -95 44 -138 31z"/>
<path d="M12533 4172 c-76 -34 -82 -38 -77 -62 8 -36 59 -80 93 -80 16 0 35
-7 42 -16 8 -9 32 -25 55 -34 23 -10 51 -28 62 -40 31 -33 42 -17 42 63 0 56
-5 78 -20 97 -11 14 -20 30 -20 36 0 15 -67 74 -83 74 -7 0 -49 -17 -94 -38z"/>
<path d="M3040 4060 c0 -5 10 -10 23 -10 18 0 19 2 7 10 -19 13 -30 13 -30 0z"/>
<path d="M9250 4004 c-47 -20 -109 -43 -139 -50 -29 -8 -81 -28 -115 -44 -37
-18 -77 -30 -101 -30 -92 0 -85 -68 10 -93 121 -32 171 -32 298 3 39 11 95 20
124 20 79 0 151 18 168 43 21 30 20 34 -25 62 -22 14 -49 43 -60 65 -12 23
-32 45 -46 50 -30 12 -13 16 -114 -26z"/>
<path d="M9683 4010 c-35 -21 -46 -48 -41 -101 3 -30 8 -36 45 -49 38 -13 46
-12 78 3 38 18 42 31 20 61 -8 11 -15 34 -15 51 0 56 -32 69 -87 35z"/>
<path d="M4390 4002 c0 -15 11 -21 27 -15 12 5 12 7 1 14 -17 11 -28 11 -28 1z"/>
<path d="M4350 3985 c-10 -12 -10 -15 3 -15 8 0 17 7 21 15 3 8 2 15 -3 15 -5
0 -14 -7 -21 -15z"/>
<path d="M13000 3966 c-34 -37 -21 -56 38 -56 59 0 83 19 61 48 -32 40 -65 43
-99 8z"/>
<path d="M11865 3918 c-21 -12 -35 -28 -35 -40 0 -17 35 -38 66 -38 28 0 35 4
40 27 12 48 -27 77 -71 51z"/>
<path d="M8453 3883 c-18 -6 -16 -38 2 -53 23 -19 87 -23 110 -7 20 15 20 16
-4 41 -24 25 -73 34 -108 19z"/>
<path d="M2537 3636 c-7 -18 1 -26 25 -26 13 0 18 6 16 17 -4 22 -34 29 -41 9z"/>
<path d="M3846 3212 c-39 -9 -44 -30 -9 -37 104 -22 175 -50 293 -117 8 -4 47
-22 85 -39 39 -16 107 -55 153 -86 51 -34 88 -53 98 -49 19 7 22 2 -80 123
-54 63 -81 86 -116 99 -25 9 -51 22 -59 28 -58 46 -291 95 -365 78z"/>
<path d="M6229 3183 c-6 -15 -15 -37 -19 -48 -7 -20 -41 -90 -69 -143 -48 -92
-212 -306 -296 -386 -144 -137 -386 -269 -563 -307 -26 -5 -78 -17 -117 -25
-38 -8 -122 -19 -185 -24 -63 -5 -135 -14 -160 -19 -98 -22 -285 -13 -545 24
-55 8 -156 17 -225 20 -459 19 -588 27 -615 37 -16 6 -61 15 -100 19 -110 13
-263 37 -273 43 -5 3 -45 10 -88 15 -88 11 -153 26 -202 47 -18 8 -38 12 -43
9 -16 -10 -10 -155 9 -214 13 -42 30 -69 70 -108 l52 -53 -21 -65 c-15 -46
-19 -77 -14 -103 3 -20 9 -79 12 -130 l5 -92 44 -26 c39 -23 44 -30 44 -63 0
-20 -5 -42 -11 -48 -5 -5 -19 -52 -30 -104 -18 -81 -20 -117 -15 -259 6 -165
8 -904 4 -970 -3 -35 -3 -35 46 -41 50 -5 76 -26 76 -61 0 -21 18 -23 44 -3
10 8 42 19 71 25 29 6 60 19 68 28 9 9 40 71 69 138 106 236 116 245 134 119
7 -44 15 -128 19 -186 7 -93 11 -109 34 -137 25 -31 29 -32 118 -37 50 -3 115
-10 145 -17 51 -10 266 -23 594 -34 l152 -5 9 38 c8 37 10 38 58 40 52 3 146
18 205 33 46 12 70 53 70 119 0 67 28 203 77 381 8 30 21 78 28 105 8 28 19
70 26 95 7 25 16 63 20 85 26 132 146 430 173 430 17 0 89 -81 152 -171 21
-31 65 -91 96 -134 31 -43 68 -97 83 -119 24 -39 28 -41 76 -41 28 0 60 5 72
12 12 6 35 14 52 18 35 7 44 33 20 60 -22 24 -14 36 30 43 53 9 64 1 58 -37
-5 -29 0 -38 38 -72 24 -21 71 -63 104 -93 111 -101 310 -305 400 -412 87
-102 124 -147 248 -305 l59 -74 548 0 549 0 -20 68 c-11 37 -24 99 -29 137
-21 158 -28 189 -50 205 -12 9 -33 40 -48 70 -18 35 -42 64 -71 85 -31 21 -54
50 -75 91 -17 33 -42 73 -54 89 -13 17 -57 76 -99 133 -41 57 -81 106 -88 108
-15 6 -103 114 -125 155 -8 15 -39 45 -67 68 -29 23 -53 45 -53 49 0 13 23 37
75 78 28 21 75 62 105 91 47 44 58 62 73 116 20 69 18 87 -15 144 -12 19 -30
53 -42 76 -18 35 -26 42 -51 42 -39 0 -85 30 -85 55 0 11 5 20 10 20 6 0 15
11 21 24 10 21 2 42 -56 159 -71 144 -211 362 -428 663 -145 202 -187 270
-187 302 0 75 -35 148 -83 173 -14 8 -19 4 -28 -18z m257 -2175 c-13 -118 -19
-148 -36 -163 -15 -14 -18 -14 -30 0 -19 23 -24 98 -11 152 13 52 24 63 59 63
22 0 23 -3 18 -52z m-2483 -197 c8 -6 27 -8 44 -5 57 11 85 -54 41 -98 -19
-19 -20 -24 -8 -52 33 -79 14 -168 -49 -233 l-34 -36 -84 6 c-96 6 -123 19
-97 48 16 18 15 29 -8 61 -9 13 -8 27 5 68 9 29 17 66 17 84 0 17 5 47 10 67
7 25 7 45 0 64 -6 15 -7 31 -4 37 9 14 149 5 167 -11z"/>
<path d="M3916 762 c-8 -13 18 -22 62 -22 23 0 44 -8 59 -22 29 -27 42 -15 22
20 -13 24 -21 27 -76 30 -34 2 -64 -1 -67 -6z"/>
<path d="M3881 646 c-34 -55 -22 -146 20 -146 12 0 12 37 -1 45 -14 9 -12 56
5 85 31 55 9 70 -24 16z"/>
<path d="M3970 631 c-5 -11 -19 -21 -30 -23 -14 -2 -17 -7 -11 -17 7 -11 13
-10 34 4 34 22 47 12 47 -35 0 -44 -26 -70 -70 -70 -20 0 -22 -2 -10 -10 70
-45 144 69 94 145 -20 30 -40 32 -54 6z"/>
<path d="M4936 3145 c-11 -8 -29 -15 -40 -15 -12 0 -34 -7 -50 -15 -15 -8 -36
-15 -45 -15 -10 0 -26 -7 -37 -16 -18 -14 -16 -15 21 -10 22 3 55 8 74 10 38
5 91 25 91 35 0 4 12 7 28 6 17 0 27 5 27 15 0 20 -45 24 -69 5z"/>
<path d="M4620 3051 c0 -10 108 -6 118 4 3 3 -22 5 -56 5 -34 0 -62 -4 -62 -9z"/>
<path d="M4520 3040 c0 -12 40 -34 47 -26 9 8 -17 36 -33 36 -8 0 -14 -4 -14
-10z"/>
<path d="M4175 2890 c3 -5 14 -10 23 -10 10 0 57 -14 106 -31 93 -32 152 -36
81 -5 -100 44 -226 72 -210 46z"/>
<path d="M3808 2815 c-99 -12 -117 -21 -62 -30 22 -3 64 -10 94 -16 162 -29
311 -45 335 -35 27 10 1 33 -59 50 -108 32 -215 42 -308 31z"/>
<path d="M4430 2800 c0 -5 5 -10 10 -10 6 0 32 -15 58 -33 26 -18 54 -36 62
-40 8 -4 38 -21 65 -37 28 -16 97 -54 155 -82 l105 -53 105 0 c154 1 324 48
387 107 40 37 30 48 -45 48 -53 0 -103 -11 -227 -49 -226 -70 -219 -69 -290
-26 -52 31 -132 71 -292 147 -24 11 -45 24 -49 29 -7 12 -44 12 -44 -1z"/>
<path d="M5160 2399 c-77 -15 -122 -18 -235 -13 -77 3 -167 9 -200 14 -78 13
-246 12 -265 0 -26 -16 1 -29 85 -40 44 -7 124 -27 179 -45 94 -33 101 -34
175 -25 42 6 101 17 131 25 30 8 80 19 110 25 68 13 200 60 200 71 0 14 -75 8
-180 -12z"/>
</g>
</svg>
